<svg width="90" height="80" viewBox="0 0 90 80" fill="none" xmlns="http://www.w3.org/2000/svg">
<path d="M13.9137 57.3506L8.17143 73.365H5.88365L0.141339 57.3506H2.42911L7.02754 70.3223L11.626 57.3506H13.9137ZM19.9722 73.5938C18.6911 73.5938 17.5929 73.3345 16.6778 72.8159C15.778 72.2821 15.0916 71.5653 14.6188 70.6654C14.146 69.7656 13.9096 68.7666 13.9096 67.6684C13.9096 66.6161 14.1231 65.6552 14.5502 64.7858C14.9925 63.9012 15.6254 63.2073 16.449 62.704C17.2879 62.1854 18.2716 61.9261 19.4003 61.9261C20.8339 61.9261 21.9931 62.3455 22.8777 63.1844C23.7775 64.0232 24.2275 65.1824 24.2275 66.6618C24.2275 67.0431 24.197 67.4092 24.136 67.7599H16.0144C16.1516 69.2089 16.5939 70.2384 17.3413 70.8484C18.0886 71.4585 19.0495 71.7635 20.2239 71.7635C21.3983 71.7635 22.4735 71.5424 23.4496 71.1001L23.7242 72.7244C22.4278 73.304 21.1771 73.5938 19.9722 73.5938ZM22.0998 66.3415C22.0998 65.5332 21.8711 64.9002 21.4135 64.4427C20.956 63.9851 20.2696 63.7563 19.3545 63.7563C18.4699 63.7563 17.776 63.9775 17.2726 64.4198C16.7693 64.8468 16.4109 65.4874 16.1974 66.3415H22.0998ZM29.7355 73.5938C28.7288 73.5938 27.9891 73.3345 27.5163 72.8159C27.0588 72.2974 26.83 71.6568 26.83 70.8942V56.2067H28.889V69.7046C28.889 70.3756 28.9271 70.8637 29.0034 71.1687C29.0949 71.4738 29.2627 71.6797 29.5067 71.7864C29.7507 71.8932 30.1473 71.9466 30.6963 71.9466L30.3989 73.5938H29.7355ZM38.1629 61.9261C39.5813 61.9261 40.6642 62.3913 41.4115 63.3217C42.1588 64.252 42.5325 65.5179 42.5325 67.1194V73.365H40.4735V67.371C40.4735 66.1356 40.2447 65.2281 39.7872 64.6486C39.3449 64.0537 38.6509 63.7563 37.7053 63.7563C37.1257 63.7563 36.5919 63.8936 36.1039 64.1681C35.6158 64.4274 35.204 64.8011 34.8685 65.2891V73.365H32.7866V56.2067H34.8685V63.2302C35.3108 62.8031 35.7912 62.4828 36.3098 62.2693C36.8436 62.0405 37.4613 61.9261 38.1629 61.9261ZM50.6548 73.5938C49.5109 73.5938 48.5195 73.3421 47.6807 72.8388C46.8418 72.3202 46.2013 71.6187 45.759 70.734C45.3167 69.8494 45.0955 68.8581 45.0955 67.7599C45.0955 66.6618 45.3167 65.6704 45.759 64.7858C46.2013 63.9012 46.8418 63.2073 47.6807 62.704C48.5195 62.1854 49.5109 61.9261 50.6548 61.9261C51.7834 61.9261 52.7672 62.1854 53.606 62.704C54.4601 63.2073 55.1083 63.9012 55.5506 64.7858C55.9929 65.6704 56.2141 66.6618 56.2141 67.7599C56.2141 68.8581 55.9929 69.8494 55.5506 70.734C55.1083 71.6187 54.4601 72.3202 53.606 72.8388C52.7672 73.3421 51.7834 73.5938 50.6548 73.5938ZM50.6548 71.7635C51.7529 71.7635 52.5994 71.4128 53.1942 70.7112C53.8043 70.0096 54.1093 69.0258 54.1093 67.7599C54.1093 66.494 53.8043 65.5103 53.1942 64.8087C52.5994 64.1071 51.7529 63.7563 50.6548 63.7563C49.5567 63.7563 48.7026 64.1071 48.0925 64.8087C47.4977 65.5103 47.2003 66.494 47.2003 67.7599C47.2003 69.0258 47.4977 70.0096 48.0925 70.7112C48.7026 71.4128 49.5567 71.7635 50.6548 71.7635ZM71.9733 61.9261C74.8406 61.9261 76.2743 63.5352 76.2743 66.7533V73.365H74.2153V66.7762C74.2153 65.7238 74.0094 64.9612 73.5976 64.4884C73.1858 64.0004 72.5147 63.7563 71.5843 63.7563C69.6016 63.7563 68.6102 64.7935 68.6102 66.8677V73.365H66.5512V67.188C66.5512 65.9068 66.3225 65.0146 65.8649 64.5113C65.4226 64.008 64.7744 63.7563 63.9203 63.7563C63.2492 63.7563 62.6544 63.8784 62.1358 64.1224C61.6173 64.3664 61.2207 64.7325 60.9462 65.2205V73.365H58.8872V62.1549H60.4886L60.7174 63.3445C61.2817 62.8412 61.8461 62.4828 62.4104 62.2693C62.9899 62.0405 63.6076 61.9261 64.2635 61.9261C65.9717 61.9261 67.1766 62.6735 67.8782 64.1681C68.656 62.6735 70.021 61.9261 71.9733 61.9261ZM84.8761 73.5938C83.595 73.5938 82.4968 73.3345 81.5817 72.8159C80.6819 72.2821 79.9955 71.5653 79.5227 70.6654C79.0499 69.7656 78.8135 68.7666 78.8135 67.6684C78.8135 66.6161 79.027 65.6552 79.4541 64.7858C79.8964 63.9012 80.5293 63.2073 81.3529 62.704C82.1918 62.1854 83.1755 61.9261 84.3042 61.9261C85.7378 61.9261 86.897 62.3455 87.7816 63.1844C88.6815 64.0232 89.1314 65.1824 89.1314 66.6618C89.1314 67.0431 89.1009 67.4092 89.0399 67.7599H80.9183C81.0555 69.2089 81.4978 70.2384 82.2452 70.8484C82.9925 71.4585 83.9534 71.7635 85.1278 71.7635C86.3022 71.7635 87.3774 71.5424 88.3535 71.1001L88.6281 72.7244C87.3317 73.304 86.081 73.5938 84.8761 73.5938ZM87.0038 66.3415C87.0038 65.5332 86.775 64.9002 86.3174 64.4427C85.8599 63.9851 85.1735 63.7563 84.2584 63.7563C83.3738 63.7563 82.6799 63.9775 82.1765 64.4198C81.6732 64.8468 81.3148 65.4874 81.1013 66.3415H87.0038Z" fill="white"/>
<path d="M68.6929 25.6296C68.3474 25.6296 68.016 25.4933 67.7717 25.2507C67.5274 25.008 67.3901 24.679 67.3901 24.3358V17.6569L44.9322 3.00635L22.4743 17.6608V23.7738C22.4651 24.1108 22.3238 24.4308 22.0806 24.6659C21.8373 24.901 21.5113 25.0325 21.1719 25.0325C20.8326 25.0325 20.5066 24.901 20.2633 24.6659C20.0201 24.4308 19.8788 24.1108 19.8696 23.7738V16.9633C19.8695 16.7489 19.9232 16.5378 20.0256 16.3491C20.1281 16.1604 20.2762 16 20.4567 15.8823L44.2126 0.37773C44.425 0.239131 44.6737 0.165283 44.9279 0.165283C45.1821 0.165283 45.4307 0.239131 45.6432 0.37773L69.4039 15.8823C69.5841 16.0002 69.7321 16.1607 69.8346 16.3493C69.937 16.538 69.9907 16.7489 69.9909 16.9633V24.3368C69.9906 24.6789 69.8539 25.007 69.6107 25.2493C69.3674 25.4916 69.0374 25.6283 68.6929 25.6296Z" fill="white"/>
<path d="M28.6074 37.7004C28.3144 37.7004 28.0301 37.6 27.801 37.4156C27.5719 37.2312 27.4115 36.9738 27.3461 36.6853C27.2807 36.3969 27.3142 36.0946 27.4411 35.8279C27.5679 35.5612 27.7807 35.3459 28.0445 35.2172C28.116 35.1825 28.3383 35.0515 28.554 34.9281C30.2475 33.9337 34.746 31.2916 40.7244 30.2249C48.3123 28.871 55.4174 30.4995 61.8489 35.0669C62.1236 35.2686 62.3087 35.5713 62.3643 35.9096C62.42 36.248 62.3417 36.5948 62.1463 36.8754C61.9509 37.1559 61.6542 37.3476 61.3201 37.4091C60.986 37.4706 60.6413 37.397 60.3605 37.2041C54.0559 32.7254 43.6448 29.0869 29.8544 37.1868C29.5386 37.3718 29.3296 37.4941 29.1684 37.5722C28.9933 37.657 28.8016 37.7008 28.6074 37.7004Z" fill="white"/>
<path d="M28.5517 48.2829C20.8462 48.2829 14.5764 42.3113 14.5764 34.972C14.5764 27.6328 20.8424 21.6611 28.5517 21.6611C36.2611 21.6611 42.5318 27.6318 42.5318 34.972C42.5318 42.3122 36.2582 48.2829 28.5517 48.2829ZM28.5517 24.2448C22.281 24.2448 17.1782 29.0566 17.1782 34.972C17.1782 40.8875 22.2819 45.6993 28.5517 45.6993C34.8215 45.6993 39.9262 40.8865 39.9262 34.972C39.9262 29.0576 34.8234 24.2448 28.5517 24.2448Z" fill="white"/>
<path d="M61.3075 48.2829C53.6015 48.2829 47.3293 42.3113 47.3293 34.972C47.3293 27.6328 53.5996 21.6611 61.3056 21.6611C69.0117 21.6611 75.2848 27.6318 75.2848 34.972C75.2848 42.3122 69.0145 48.2829 61.3075 48.2829ZM61.3075 24.2448C55.0364 24.2448 49.9332 29.0566 49.9332 34.972C49.9332 40.8875 55.0364 45.6993 61.3075 45.6993C67.5787 45.6993 72.6828 40.8865 72.6828 34.972C72.6828 29.0576 67.5806 24.2448 61.3075 24.2448Z" fill="white"/>
<path d="M61.3931 37.5351C61.2138 37.536 61.0363 37.4994 60.8719 37.4275C60.7075 37.3556 60.5599 37.2501 60.4385 37.1178C60.3446 37.0154 60.2673 36.8988 60.2094 36.7722C60.0748 36.667 59.8897 36.5301 59.7321 36.4124C57.0144 34.4024 49.7948 29.0711 49.8101 16.3421C49.8106 15.9983 49.9472 15.6688 50.1899 15.426C50.4327 15.1831 50.7616 15.0469 51.1045 15.0471C51.2745 15.0471 51.4428 15.0807 51.5998 15.146C51.7568 15.2114 51.8994 15.3071 52.0195 15.4277C52.1395 15.5484 52.2347 15.6916 52.2995 15.8491C52.3643 16.0067 52.3974 16.1755 52.397 16.346C52.3865 27.7617 58.8444 32.5283 61.269 34.3229C62.1721 34.9929 62.6694 35.3576 62.7105 36.107C62.7216 36.3092 62.6879 36.5113 62.6118 36.6988C62.5357 36.8863 62.4191 37.0546 62.2704 37.1915C62.0317 37.4128 61.7183 37.5355 61.3931 37.5351Z" fill="white"/>
</svg>
